<?xml version="1.0" encoding="utf-8"?>
<!DOCTYPE svg PUBLIC "-//W3C//DTD SVG 1.1//EN" "http://www.w3.org/Graphics/SVG/1.1/DTD/svg11.dtd" [
	<!ENTITY ns_svg "http://www.w3.org/2000/svg">
	<!ENTITY ns_xlink "http://www.w3.org/1999/xlink">
]>
<svg  version="1.1" id="Layer_1" xmlns="&ns_svg;" xmlns:xlink="&ns_xlink;" width="128" height="128" viewBox="0 0 128 128"
	 overflow="visible" enable-background="new 0 0 128 128" xml:space="preserve">
	<path opacity="0.2" d="M4,64c0,33.636,27.364,61,61,61s61-27.364,61-61S98.636,3,65,3S4,30.364,4,64z"/>
	<path opacity="0.2" d="M3,64c0,34.188,27.813,62,62,62c34.188,0,62-27.813,62-62c0-34.187-27.813-62-62-62C30.813,2,3,29.813,3,64z
		"/>
	<linearGradient id="XMLID_7_" gradientUnits="userSpaceOnUse" x1="60.4897" y1="1.7422" x2="69.6562" y2="126.2408">
		<stop  offset="0" style="stop-color:#A70000"/>
		<stop  offset="1" style="stop-color:#A70000"/>
	</linearGradient>
	<path fill="url(#XMLID_7_)" d="M4,63c0,33.636,27.364,61,61,61s61-27.364,61-61S98.636,2,65,2S4,29.364,4,63z"/>
	<linearGradient id="XMLID_8_" gradientUnits="userSpaceOnUse" x1="57.7651" y1="1.689" x2="72.5153" y2="126.69">
		<stop  offset="0" style="stop-color:#BD0000"/>
		<stop  offset="0.3522" style="stop-color:#C40000"/>
		<stop  offset="0.8691" style="stop-color:#D80000"/>
		<stop  offset="1" style="stop-color:#DE0000"/>
	</linearGradient>
	<circle fill="url(#XMLID_8_)" cx="65" cy="63" r="60"/>
	<linearGradient id="XMLID_9_" gradientUnits="userSpaceOnUse" x1="23.375" y1="14.5664" x2="71.625" y2="67.8164">
		<stop  offset="0" style="stop-color:#E05E5E"/>
		<stop  offset="1" style="stop-color:#D81818"/>
	</linearGradient>
	<path fill="url(#XMLID_9_)" d="M57.75,56.5c24.934-8.476,65.898-6.226,65.898-6.226C117.811,23.25,93.771,3,65,3
		C31.863,3,5,29.863,5,63c0,8.284,1.679,16.176,4.715,23.354C9.715,86.354,32.817,64.976,57.75,56.5z"/>
	<linearGradient id="XMLID_10_" gradientUnits="userSpaceOnUse" x1="63.8184" y1="54.5806" x2="72.1185" y2="124.9203">
		<stop  offset="0" style="stop-color:#BD0000"/>
		<stop  offset="0.0432" style="stop-color:#C10606"/>
		<stop  offset="0.2944" style="stop-color:#D62424"/>
		<stop  offset="0.5413" style="stop-color:#E63A3A"/>
		<stop  offset="0.7796" style="stop-color:#EF4747"/>
		<stop  offset="1" style="stop-color:#F24B4B"/>
	</linearGradient>
	<path fill="url(#XMLID_10_)" d="M65,122C32.03,122,5.283,95.406,5.013,62.5C5.011,62.667,5,62.833,5,63c0,33.137,26.863,60,60,60
		c33.137,0,60-26.863,60-60c0-0.167-0.012-0.333-0.013-0.5C124.717,95.406,97.97,122,65,122z"/>
	
		<linearGradient id="XMLID_11_" gradientUnits="userSpaceOnUse" x1="-68.751" y1="-319.8496" x2="-194.001" y2="-319.8496" gradientTransform="matrix(-1 0 0 -1 -66 -286.5)">
		<stop  offset="0" style="stop-color:#E57373"/>
		<stop  offset="0.118" style="stop-color:#EC9393"/>
		<stop  offset="0.2664" style="stop-color:#F4B4B4"/>
		<stop  offset="0.3897" style="stop-color:#F9C9C9"/>
		<stop  offset="0.4719" style="stop-color:#FBD0D0"/>
		<stop  offset="0.5484" style="stop-color:#F9C8C8"/>
		<stop  offset="0.6698" style="stop-color:#F5B1B1"/>
		<stop  offset="0.8208" style="stop-color:#ED8B8B"/>
		<stop  offset="0.9942" style="stop-color:#E35858"/>
		<stop  offset="1" style="stop-color:#E35656"/>
	</linearGradient>
	<path fill="url(#XMLID_11_)" d="M65,4.101c32.97,0,59.717,26.594,59.987,59.5c0.001-0.167,0.013-0.333,0.013-0.5
		c0-33.137-26.863-60-60-60c-33.137,0-60,26.863-60,60c0,0.167,0.011,0.333,0.013,0.5C5.283,30.695,32.03,4.101,65,4.101z"/>
	<linearGradient id="XMLID_12_" gradientUnits="userSpaceOnUse" x1="61.6919" y1="46.3145" x2="69.4421" y2="83.0653">
		<stop  offset="0" style="stop-color:#BD0000"/>
		<stop  offset="0.167" style="stop-color:#C10907"/>
		<stop  offset="0.4446" style="stop-color:#CD2319"/>
		<stop  offset="0.7965" style="stop-color:#E04C36"/>
		<stop  offset="1" style="stop-color:#ED6749"/>
	</linearGradient>
	<path fill="url(#XMLID_12_)" d="M26,49c-0.552,0-1,0.448-1,1v24c0,0.553,0.448,1,1,1h78c0.553,0,1-0.447,1-1V50
		c0-0.552-0.447-1-1-1H26z"/>
	<rect x="26" y="50" fill="#FFFFFF" width="78" height="24"/>
	<polygon fill="#CCCCCC" points="27,51 104,51 104,50 26,50 26,74 27,74 	"/>
</svg>
